<?xml version="1.0" standalone="no"?>
<!DOCTYPE svg PUBLIC "-//W3C//DTD SVG 20010904//EN"
 "http://www.w3.org/TR/2001/REC-SVG-20010904/DTD/svg10.dtd">
<svg version="1.0" xmlns="http://www.w3.org/2000/svg"
 width="512.000000pt" height="512.000000pt" viewBox="0 0 512.000000 512.000000"
 preserveAspectRatio="xMidYMid meet">
<metadata>
Created by potrace 1.14, written by Peter Selinger 2001-2017
</metadata>
<g transform="translate(0.000000,512.000000) scale(0.100000,-0.100000)"
fill="#000000" stroke="none">
<path d="M325 5101 c-87 -30 -128 -54 -186 -111 -98 -97 -134 -182 -134 -320
0 -104 22 -176 76 -255 15 -22 389 -400 831 -841 l803 -801 316 317 317 318
-807 806 c-443 443 -817 814 -831 823 -106 76 -269 102 -385 64z"/>
<path d="M4560 5106 c-120 -32 -68 17 -1644 -1557 l-1500 -1497 318 -318 317
-318 1481 1480 c823 823 1495 1502 1513 1530 51 77 70 145 70 249 0 51 -6 105
-14 125 -58 152 -147 245 -279 293 -68 24 -197 31 -262 13z"/>
<path d="M3088 2029 c-170 -170 -308 -313 -308 -317 0 -6 245 -256 285 -291 3
-2 147 139 322 313 l317 317 -145 145 c-79 79 -148 144 -154 143 -5 0 -148
-140 -317 -310z"/>
<path d="M920 1910 c-52 -54 -94 -104 -92 -110 1 -6 39 -47 83 -92 l81 -81
-103 -103 c-57 -57 -107 -103 -112 -101 -5 1 -45 40 -91 85 l-83 83 -107 -106
-108 -107 406 -406 407 -406 213 213 213 213 87 -86 c47 -47 88 -86 91 -86 2
0 51 47 108 104 l104 104 -491 491 c-270 270 -496 491 -501 490 -6 0 -53 -45
-105 -99z"/>
<path d="M3594 1518 l-491 -493 104 -102 c56 -57 105 -103 108 -103 2 0 44 39
92 86 l87 85 213 -213 213 -212 406 407 407 406 -108 107 -107 107 -85 -87
c-46 -47 -87 -86 -91 -86 -4 0 -53 47 -110 104 l-104 103 86 86 c47 48 86 89
86 92 0 10 -197 205 -207 205 -4 0 -229 -222 -499 -492z"/>
<path d="M182 817 c-94 -95 -172 -177 -172 -182 0 -6 141 -151 313 -322 l313
-313 177 178 177 177 -318 318 -317 317 -173 -173z"/>
<path d="M4447 672 l-318 -318 145 -144 c79 -80 159 -160 178 -177 l34 -33
317 318 317 317 -178 178 -177 177 -318 -318z"/>
</g>
</svg>
